<?xml version="1.0" encoding="utf-8"?>
<!-- Generator: Adobe Illustrator 23.1.1, SVG Export Plug-In . SVG Version: 6.00 Build 0)  -->
<svg version="1.1" id="Layer_1" xmlns="http://www.w3.org/2000/svg" xmlns:xlink="http://www.w3.org/1999/xlink" x="0px" y="0px"
	 viewBox="0 0 500 500" style="enable-background:new 0 0 500 500;" xml:space="preserve">
<style type="text/css">
	.st0{display:none;}
	.st1{display:inline;fill:#E8002A;}
	.st2{fill:#E8002A;}
	.st3{display:none;fill:#E8002A;}
</style>
<g class="st0">
	<path class="st1" d="M447.1,320.7h-14.5v-15.6h14c4.9,0,8.9-4,8.9-8.9V30.4c0-4.9-4-8.9-8.9-8.9H53c-4.9,0-8.9,4-8.9,8.9v265.8
		c0,4.9,4,8.9,8.9,8.9H120v15.6H52.4c-13.7,0-24.8-11.1-24.8-24.8v-265C27.5,17.1,38.7,6,52.4,6h393.8C459.9,6,471,17.1,471,30.8
		v265.6c0,13.7-11.1,24.8-24.8,24.8"/>
	<path class="st1" d="M272.1,313.4c-4.3,0-7.8-3.5-7.8-7.8v-84.5c0-4.3,3.3-8,7.6-8.1c4.4-0.1,8,3.4,8,7.8v84.9
		C279.9,309.9,276.4,313.4,272.1,313.4"/>
	<path class="st1" d="M272.1,315.5c-4.3,0-7.8-3.5-7.8-7.8v-20.7c0-17.1,13.6-31,30.3-31c16.5,0,29.9,13.5,30.3,30.3
		c0.1,4.5-3.2,8.5-7.7,8.5c-4.3,0-7.9-3.5-7.9-7.8c0-8.5-6.6-15.5-14.7-15.5c-8.1,0-14.7,6.9-14.7,15.5v20.7
		C279.9,312,276.4,315.5,272.1,315.5"/>
	<path class="st1" d="M234.2,251.1h-15.6v-75.8c0-17.5,13.6-31.8,30.3-31.8s30.3,14.2,30.3,31.8h-15.6c0-8.7-6.6-15.8-14.7-15.8
		c-8.1,0-14.7,7.1-14.7,15.8V251.1z"/>
	<rect x="264.3" y="175.3" class="st1" width="15.6" height="73.7"/>
	<path class="st1" d="M363.7,316.2c-4.4,0-8-3.6-8-8v-21.2c0-8.7-6.8-15.8-15.1-15.8c-8.3,0-15.1,7.1-15.1,15.8V308
		c0,4-2.9,7.6-6.8,8.1c-4.7,0.6-8.7-3.1-8.7-7.7v-21.2c0-17.6,14-31.9,31.2-31.9s31.2,14.3,31.2,31.9v21.1c0,4.4-3.6,8-8,8"/>
	<path class="st1" d="M418,296.8h-15.8c0-8.7-6.8-15.8-15.1-15.8c-8.3,0-15.1,7.1-15.1,15.8h-16c0-17.5,13.9-31.8,31-31.8
		c17.1,0,31,14.3,31,31.8"/>
	<path class="st1" d="M223.8,491c-1.9,0-3.7-0.7-5.2-1.9c-1.8-1.5-2.8-3.7-2.8-6.1c0-12.8-4.7-25-13.2-34.5l-13.6-15.2
		c-5.7-6.4-10.1-13.8-13.1-21.9l-40.3-110.2c-0.7-2.1-5.1-17.2,3.7-27.1c5.6-6.3,14.5-8.5,26.5-6.3c22.1,4,40.5,29.6,51.7,49.4
		l0.1-66l16.5,0l-0.1,76.8c0,2.7-0.8,5.4-2.4,7.6c-2.7,3.9-7.1,6-11.8,5.6c-4.7-0.3-8.8-3-10.9-7.2c-14.7-29-31.7-47.7-45.4-50.2
		c-5.8-1-10.1-0.6-11.7,1.1c-2,2.2-1.5,8-0.6,11.3l40.2,110c2.3,6.2,5.6,11.8,10,16.7l13.6,15.2c9.3,10.4,15.1,23.4,16.8,37.1
		c19.3-0.2,70.1-0.1,151.8,0.1c0.9-8.8,3.2-19.1,7.2-26.7l5.8-11.2c3.8-7.3,5.8-15.6,5.8-23.9V296.8H418v116.5
		c0,10.8-2.6,21.6-7.4,31.2l-5.6,11.2c-3.3,6.6-5.7,17.9-5.7,27.4c0,2.1-0.8,4.2-2.3,5.6c-1.5,1.5-3.4,2.3-5.5,2.3H391
		c-63.7-0.2-160.1-0.3-166.1,0c-0.3,0-0.5,0-0.8,0"/>
	<path class="st1" d="M325.6,248h-29.1v-15.6h21.8V95.3H181.2v137.1h14.5V248h-22.1c-4.4,0-8-3.6-8-8V87.7c0-4.4,3.6-8,8-8h152.3
		c4.4,0,8,3.6,8,8v152.2c0,4.4-3.6,8-8,8"/>
	<path class="st1" d="M121.8,203.5l-38.2-38.2c-3.1-3.1-3.1-8.2,0-11.3l38.2-38.2l11.3,11.3l-32.6,32.6l32.6,32.6L121.8,203.5z"/>
	<path class="st1" d="M377.7,203.5l-11.3-11.3l32.6-32.6l-32.6-32.6l11.3-11.3l38.2,38.2c3.1,3.1,3.1,8.2,0,11.3L377.7,203.5z"/>
</g>
<g>
	<path class="st2" d="M346.6,312.9H150.3c-6.8,0-13.4-2.9-18-7.9c-4.6-5-6.9-11.8-6.4-18.7l17.4-203.2c1.1-12.8,11.6-22.4,24.4-22.4
		h32.9V77h-32.9c-4.2,0-7.8,3.3-8.1,7.5l-17.4,203.2c-0.2,2.3,0.6,4.5,2.1,6.2c1.6,1.7,3.7,2.6,6,2.6h196.3c2.3,0,4.5-0.9,6-2.7
		c1.6-1.7,2.3-3.9,2.1-6.2L336.5,84.5c-0.4-4.2-3.9-7.4-8.1-7.4h-32V60.7h32c12.8,0,23.3,9.6,24.4,22.3L371,286.2
		c0.6,6.8-1.7,13.6-6.3,18.7C360,310,353.4,312.9,346.6,312.9"/>
	<path class="st2" d="M312.9,285.8h-23v-16.3h23c2.3,0,4.5-0.9,6-2.7c1.6-1.7,2.3-3.9,2.1-6.2l-2.5-27.9l16.3-1.5l2.5,27.9
		c0.6,6.8-1.7,13.7-6.3,18.7C326.4,282.9,319.8,285.8,312.9,285.8"/>
	<rect x="229" y="60.7" class="st2" width="51" height="16.3"/>
	<path class="st2" d="M310.7,104.4h-16.3V42.1c0-6.4-5.3-11.7-11.7-11.7h-56.1c-6.5,0-11.7,5.3-11.7,11.7v62.4h-16.3V42.1
		c0-15.5,12.6-28.1,28.1-28.1h56.1c15.5,0,28.1,12.6,28.1,28.1V104.4z"/>
	<path class="st2" d="M458.9,412h-16.3V139.8h-59.4v-16.3h67.5c4.5,0,8.2,3.7,8.2,8.2V412z"/>
	<path class="st2" d="M54.3,412H37.9V131.6c0-4.5,3.7-8.2,8.2-8.2h67.5v16.3H54.3V412z"/>
	<path class="st2" d="M450.6,486H46.2c-24.5,0-44.4-17.4-44.4-38.8V412c0-4.5,3.7-8.2,8.2-8.2h186.2c4.5,0,8.2,3.7,8.2,8.2v19.6
		h88.1V412c0-4.5,3.7-8.2,8.2-8.2h186.2c4.5,0,8.2,3.7,8.2,8.2v35.1C495,468.6,475.1,486,450.6,486 M18.1,420.2v26.9
		c0,12.4,12.6,22.5,28,22.5h404.5c15.5,0,28-10.1,28-22.5v-26.9H308.8v19.6c0,4.5-3.7,8.2-8.2,8.2H196.2c-4.5,0-8.2-3.7-8.2-8.2
		v-19.6H18.1z"/>
</g>
<path class="st3" d="M455.2,377.2H41.8c-8.8,0-15.9-6.2-15.9-13.8v-13.8h445.2v13.8C471.1,371,464,377.2,455.2,377.2 M304.2,411.7
	H192.9V391h111.3V411.7z M367.7,439.3v6.9H129.3v-6.9c0-7.6,7.1-13.8,15.9-13.8h206.7C360.6,425.5,367.7,431.7,367.7,439.3
	 M224.6,246.1h-7.9c-4.4,0-8,3.1-8,6.9c0,3.8,3.6,6.9,8,6.9h63.6c4.4,0,8-3.1,8-6.9c0-3.8-3.6-6.9-8-6.9h-7.9v-20.7h71.6v55.2H153.1
	v-55.2h71.6V246.1z M248.5,170.2c2.7,0,5.3-0.2,8-0.6v76.5h-15.9v-76.5C243.2,170,245.8,170.2,248.5,170.2 M248.5,156.4
	c-22,0-39.7-15.4-39.7-34.5c0-19.1,17.8-34.5,39.7-34.5c22,0,39.8,15.4,39.8,34.5C288.2,140.9,270.4,156.3,248.5,156.4 M343.9,308.2
	H153.1v-13.8h190.8V308.2z M41.8,59.8h413.4c8.8,0,15.9,6.2,15.9,13.8v220.8h-43.7c-6.6,0-11.9-4.6-11.9-10.3
	c0-13.3-12.5-24.2-27.8-24.2h-27.8v-34.5c0-7.6-7.1-13.8-15.9-13.8h-71.6v-46.1c23.5-9.7,36.2-32.2,30.4-54.3
	c-5.7-22-28.3-37.7-54.3-37.7c-26,0-48.6,15.7-54.3,37.7c-5.7,22,6.9,44.6,30.4,54.3v46.1h-71.6c-8.8,0-15.9,6.2-15.9,13.8v82.8
	c0,7.6,7.1,13.8,15.9,13.8h190.8c8.8,0,15.9-6.2,15.9-13.8v-34.5h27.8c6.6,0,11.9,4.6,11.9,10.3c0,13.3,12.5,24.2,27.8,24.2h43.7
	v27.6H25.9V73.6C25.9,65.9,33,59.8,41.8,59.8 M455.2,46H41.8C24.2,46,10,58.3,10,73.6v289.8c0,15.2,14.2,27.6,31.8,27.6h135.1v20.7
	h-31.8c-17.6,0-31.8,12.4-31.8,27.6v6.9c0,7.6,7.1,13.8,15.9,13.8h238.5c8.8,0,15.9-6.2,15.9-13.8v-6.9c0-15.2-14.2-27.6-31.8-27.6
	h-31.8V391h135.1c17.6,0,31.8-12.4,31.8-27.6V73.6C487,58.3,472.8,46,455.2,46"/>
</svg>
