<?xml version="1.0" encoding="UTF-8"?><svg xmlns="http://www.w3.org/2000/svg" viewBox="0 0 489.91 356.27"><defs><style>.d,.e{fill:#ff671b;}.e{fill-rule:evenodd;}</style></defs><g id="a"/><g id="b"><g id="c"><g><path class="d" d="M344.12,356.26c-.68,0-1.36-.03-2.05-.1H147.85c-5.46,.56-10.61-1.08-14.56-4.61-4.06-3.61-6.29-8.72-6.29-14.39V164.46l-48.97,48.97c-4.41,4.41-12.15,4.42-16.56,0L3.42,155.38c-2.21-2.2-3.42-5.14-3.42-8.28s1.22-6.07,3.42-8.28c3.38-3.38,10.5-10.77,19.84-20.47C107.6,30.83,138.82,.98,146.98,.04c.2-.02,.39-.04,.59-.04h194.76c.2,0,.39,.01,.59,.04,8.16,.94,39.37,30.79,123.69,118.28,9.36,9.71,16.5,17.12,19.88,20.5,2.21,2.21,3.42,5.15,3.42,8.28s-1.22,6.07-3.43,8.28l-58.05,58.05c-4.41,4.41-12.14,4.42-16.56,0l-48.97-48.97v172.71c0,5.67-2.23,10.78-6.29,14.39-3.45,3.08-7.83,4.71-12.51,4.71Zm-196.54-10.39h194.76c.2,0,.39,.01,.59,.03,2.6,.31,5.04-.42,6.85-2.03,1.84-1.64,2.85-4.02,2.85-6.71V152.04c0-2.08,1.25-3.96,3.17-4.75,1.92-.8,4.13-.36,5.61,1.12l57.75,57.75c.73,.72,1.3,.71,2.01,0l58.06-58.05c.36-.36,.41-.78,.41-1s-.06-.65-.41-1.01c-3.4-3.4-10.59-10.86-20.01-20.63-29.09-30.19-105.9-109.9-117.61-115.17H148.07c-10.44,4.2-88.11,84.81-117.4,115.2-9.4,9.76-16.58,17.2-19.97,20.6-.35,.36-.41,.79-.41,1.01s.05,.65,.41,1l58.05,58.05c.72,.71,1.3,.71,2.01,0l57.75-57.75c1.47-1.48,3.68-1.91,5.61-1.12,1.92,.8,3.17,2.67,3.17,4.75v185.12c0,2.69,1.01,5.08,2.85,6.71,1.81,1.61,4.25,2.34,6.85,2.03,.2-.02,.39-.03,.59-.03Z"/><polygon class="e" points="244.95 78.8 178.55 5.14 311.36 5.14 244.95 78.8"/><g><g><polygon class="e" points="28.75 120.08 96.43 187.76 89.16 195.04 21.61 127.49 28.75 120.08"/><polygon class="e" points="43.9 104.37 111.86 172.33 104.58 179.61 36.75 111.77 43.9 104.37"/></g><g><polygon class="e" points="461.17 120.08 393.48 187.76 400.76 195.04 468.31 127.49 461.17 120.08"/><polygon class="e" points="446.01 104.37 378.05 172.33 385.33 179.61 453.16 111.77 446.01 104.37"/></g></g><path class="e" d="M306.83,133.42v81.26h7.76v28.9h-50.37v-28.9h8.59v-50.2h-9.74v-18.34l12.72-12.72h31.05Zm-75.85,25.77v58.3l-6.6,6.77h-19.49l-6.6-6.77v-58.3l6.6-6.27h19.99l6.11,6.27h0Zm-9.91,2.97h-13.21v52.52h13.21v-52.52h0Zm33.03-9.25l-18.83-19.49h-40.79l-19.16,19.49v71.34l19.16,19.32h39.97l19.65-19.32v-71.34h0Zm-9.75,3.8l-13.21-13.87h-32.2l-14.03,13.87v63.25l14.03,14.03h31.05l14.36-14.03v-63.25h0Zm51.74-13.87h-15.52l-7.76,7.59v4.29h9.91v69.53h-8.59v9.74h30.72v-9.74h-8.75v-81.42Z"/><path class="e" d="M132.14,194.27h35.89v10.28h-35.89v-10.28h0Zm225.62-21.82v10.29h-43.65v-10.29h43.65Zm0,21.82v10.28h-43.65v-10.28h43.65Zm-225.62-11.54v-10.29h35.89v10.29h-35.89Z"/></g></g></g></svg>