<?xml version="1.0" encoding="UTF-8"?><svg xmlns="http://www.w3.org/2000/svg" viewBox="0 0 500 500"><defs><style>.e{fill:#ff671b;}</style></defs><g id="a"/><g id="b"><g id="c"><g id="d"><g><path class="e" d="M265.84,320.02c-2,0-4-.76-5.52-2.29-6.64-6.64-10.3-15.48-10.3-24.88s3.66-18.23,10.3-24.88c13.7-13.71,36.01-13.72,49.72,0l7.87,7.49c3.12,2.98,3.25,7.93,.27,11.06-2.98,3.13-7.91,3.25-11.05,.27l-8.01-7.62c-7.76-7.75-20.14-7.75-27.76-.14-3.69,3.7-5.72,8.6-5.72,13.82s2.03,10.13,5.72,13.82c3.05,3.05,3.05,8,0,11.06-1.52,1.53-3.53,2.29-5.52,2.29Z"/><path class="e" d="M312.66,289.38c-2,0-4-.76-5.52-2.29-6.64-6.65-10.29-15.6-10.27-25.21,.02-9.6,3.69-18.54,10.33-25.19,13.7-13.71,36.01-13.72,49.72,0l8.26,7.3c3.23,2.86,3.53,7.8,.67,11.04-2.85,3.23-7.79,3.54-11.03,.67l-8.6-7.62c-7.96-7.95-20.35-7.94-27.97-.32-7.68,7.68-7.7,20.63-.06,28.29,3.05,3.05,3.05,8,0,11.06-1.53,1.53-3.53,2.29-5.52,2.29Z"/><path class="e" d="M372.19,500c-16.31,0-32.45-3.97-46-12.23l-.51-.31c-41.76-19.53-88.23-25.28-119.9-26.65-18.41-.8-32.84-15.98-32.84-34.57,0-9.81,4.1-19.17,11.27-25.72,7.05-6.44,16.5-9.62,25.97-8.8l50.9,4.72-125.19-125.63c-6.63-6.64-10.29-15.47-10.29-24.87s3.66-18.23,10.3-24.88c6.64-6.64,15.58-10.32,25.16-10.34h.09c9.58,0,18.49,3.65,25.11,10.27l84.93,85.91c3.03,3.07,3.01,8.02-.06,11.06-3.07,3.04-8.01,3.01-11.05-.06l-84.9-85.88c-3.64-3.64-8.63-5.66-14.04-5.66h-.05c-5.43,.01-10.46,2.06-14.15,5.76-3.69,3.7-5.72,8.6-5.72,13.82s2.03,10.13,5.72,13.82l140.44,140.94c2.32,2.33,2.94,5.87,1.54,8.85-1.4,2.98-4.48,4.8-7.79,4.46l-72.38-6.72c-5.18-.46-10.14,1.23-14.01,4.77-3.99,3.65-6.18,8.67-6.18,14.13,0,10.24,7.86,18.56,17.9,19,33.2,1.44,82.05,7.52,126.25,28.3,.26,.13,.52,.26,.76,.41l.86,.53c27.79,16.94,70.66,11.52,93.57-11.84,7.54-7.69,12.2-12.53,17.85-18.39l5.72-5.93c43.13-44.69,43.94-115.43,1.85-161.06l-13.14-14.24-46.83-46.47c-7.42-7.43-20.27-7.4-27.65-.02-3.68,3.68-5.7,8.72-5.68,14.18,.02,5.47,2.07,10.52,5.77,14.22,3.05,3.05,3.05,8,0,11.06-3.04,3.05-8,3.05-11.05,0-6.64-6.64-10.32-15.6-10.35-25.23-.03-9.66,3.62-18.63,10.26-25.28,13.7-13.72,36.01-13.72,49.72,0l47.05,46.69,13.38,14.49c47.7,51.71,46.78,131.89-2.1,182.53l-5.71,5.92c-5.68,5.89-10.37,10.76-17.95,18.49-16.95,17.28-42.09,26.45-66.87,26.45Z"/></g><path class="e" d="M70.49,328.03c-1.62,0-3.23-.5-4.59-1.49-2.41-1.75-3.61-4.71-3.11-7.65l18.67-109.11L2.36,132.52c-2.12-2.08-2.89-5.18-1.97-8.01,.92-2.83,3.36-4.89,6.31-5.32l109.31-15.92L164.88,4.01c2.63-5.34,11.38-5.34,14.02,0l48.89,99.26,109.31,15.92c2.94,.43,5.39,2.49,6.31,5.32s.15,5.93-1.97,8.01l-79.1,77.27,5.13,29.94c.73,4.26-2.13,8.3-6.38,9.03-4.26,.74-8.29-2.13-9.02-6.39l-5.82-33.99c-.43-2.53,.41-5.12,2.24-6.92l70.72-69.08-97.72-14.23c-2.54-.37-4.75-1.97-5.88-4.28L171.89,25.15l-43.69,88.72c-1.14,2.31-3.34,3.91-5.88,4.28l-97.72,14.23,70.72,69.08c1.84,1.8,2.67,4.38,2.24,6.92l-16.69,97.53,32.7-17.23c3.83-2.01,8.55-.55,10.55,3.28,2.01,3.82,.55,8.55-3.27,10.56l-46.71,24.61c-1.14,.6-2.39,.9-3.64,.9Z"/></g></g></g></svg>