<?xml version="1.0" encoding="utf-8"?>
<!-- Generator: Adobe Illustrator 23.1.1, SVG Export Plug-In . SVG Version: 6.00 Build 0)  -->
<svg version="1.1" id="Layer_1" xmlns="http://www.w3.org/2000/svg" xmlns:xlink="http://www.w3.org/1999/xlink" x="0px" y="0px"
	 viewBox="0 0 500 500" style="enable-background:new 0 0 500 500;" xml:space="preserve">
<style type="text/css">
	.st0{display:none;}
	.st1{display:inline;fill:#E8002A;}
	.st2{fill:#E8002A;}
</style>
<g class="st0">
	<path class="st1" d="M348.9,314.2H151.8c-6.9,0-13.5-2.9-18.1-8c-4.6-5.1-7-11.9-6.4-18.7l17.4-204.1c1.1-12.8,11.6-22.5,24.5-22.5
		h33v16.4h-33c-4.2,0-7.8,3.3-8.2,7.5l-17.4,204.1c-0.2,2.3,0.6,4.5,2.1,6.2c1.6,1.7,3.7,2.7,6,2.7h197.1c2.3,0,4.5-1,6.1-2.7
		c1.6-1.7,2.3-3.9,2.1-6.3L338.8,84.8c-0.4-4.3-3.9-7.5-8.2-7.5h-32.1V60.9h32.1c12.8,0,23.4,9.6,24.5,22.4l18.3,204.1
		c0.6,6.9-1.7,13.7-6.3,18.8C362.5,311.3,355.8,314.2,348.9,314.2"/>
	<path class="st1" d="M315.1,286.9H292v-16.4h23.1c2.3,0,4.5-1,6.1-2.7c1.6-1.7,2.3-3.9,2.1-6.3l-2.5-28l16.3-1.5l2.5,28
		c0.6,6.9-1.7,13.7-6.3,18.8C328.7,284,322,286.9,315.1,286.9"/>
	<rect x="230.9" y="60.9" class="st1" width="51.3" height="16.4"/>
	<path class="st1" d="M312.9,104.8h-16.4V42.2c0-6.5-5.3-11.8-11.8-11.8h-56.3c-6.5,0-11.8,5.3-11.8,11.8v62.7h-16.4V42.2
		c0-15.5,12.6-28.2,28.2-28.2h56.3c15.5,0,28.2,12.6,28.2,28.2V104.8z"/>
	<path class="st1" d="M461.7,413.7h-16.4V140.3h-59.6v-16.4h67.8c4.5,0,8.2,3.7,8.2,8.2V413.7z"/>
	<path class="st1" d="M55.4,413.7H39V132.1c0-4.5,3.7-8.2,8.2-8.2H115v16.4H55.4V413.7z"/>
	<path class="st1" d="M453.5,488H47.3c-24.6,0-44.6-17.5-44.6-39v-35.3c0-4.5,3.7-8.2,8.2-8.2h187c4.5,0,8.2,3.7,8.2,8.2v19.6h88.5
		v-19.6c0-4.5,3.7-8.2,8.2-8.2h187c4.5,0,8.2,3.7,8.2,8.2V449C498,470.5,478,488,453.5,488 M19.1,421.9V449
		c0,12.5,12.6,22.6,28.2,22.6h406.2c15.5,0,28.2-10.1,28.2-22.6v-27.1H311v19.6c0,4.5-3.7,8.2-8.2,8.2H197.9c-4.5,0-8.2-3.7-8.2-8.2
		v-19.6H19.1z"/>
</g>
<g>
	<path class="st2" d="M464.5,398.2H36.3c-9.1,0-16.5-7.4-16.5-16.5v-16.5h461.1v16.5C480.9,390.8,473.6,398.2,464.5,398.2
		 M308,439.4H192.8v-24.7H308V439.4z M373.9,472.3v8.2h-247v-8.2c0-9.1,7.4-16.5,16.5-16.5h214.1
		C366.5,455.8,373.9,463.2,373.9,472.3 M225.7,241.8h-8.2c-4.6,0-8.2,3.7-8.2,8.2c0,4.6,3.7,8.2,8.2,8.2h65.9c4.6,0,8.2-3.7,8.2-8.2
		c0-4.5-3.7-8.2-8.2-8.2h-8.2v-24.7h74.1v65.9H151.6v-65.9h74.1V241.8z M250.4,151.2c2.8,0,5.5-0.2,8.2-0.7v91.2h-16.5v-91.2
		C244.9,151,247.7,151.2,250.4,151.2 M250.4,134.7c-22.7,0-41.2-18.4-41.2-41.2c0-22.7,18.4-41.2,41.2-41.2
		c22.7,0,41.2,18.4,41.2,41.2C291.5,116.3,273.1,134.7,250.4,134.7 M349.2,315.9H151.6v-16.5h197.6V315.9z M36.3,19.5h428.1
		c9.1,0,16.5,7.4,16.5,16.5v263.5h-45.3c-6.8,0-12.3-5.5-12.3-12.3c0-15.9-12.9-28.8-28.8-28.8h-28.8v-41.2
		c0-9.1-7.4-16.5-16.5-16.5h-74.1v-55c24.3-11.5,37.4-38.4,31.5-64.7c-5.9-26.3-29.3-45-56.2-45c-27,0-50.3,18.7-56.2,45
		c-5.9,26.3,7.2,53.2,31.5,64.7v55h-74.1c-9.1,0-16.5,7.4-16.5,16.5v98.8c0,9.1,7.4,16.5,16.5,16.5h197.6c9.1,0,16.5-7.4,16.5-16.5
		v-41.2h28.8c6.8,0,12.3,5.5,12.3,12.3c0,15.9,12.9,28.8,28.8,28.8h45.3v32.9H19.9V35.9C19.9,26.8,27.2,19.5,36.3,19.5 M464.5,3
		H36.3C18.1,3,3.4,17.7,3.4,35.9v345.8c0,18.2,14.7,32.9,32.9,32.9h140v24.7h-32.9c-18.2,0-32.9,14.7-32.9,32.9v8.2
		c0,9.1,7.4,16.5,16.5,16.5h247c9.1,0,16.5-7.4,16.5-16.5v-8.2c0-18.2-14.7-32.9-32.9-32.9h-32.9v-24.7h140
		c18.2,0,32.9-14.7,32.9-32.9V35.9C497.4,17.7,482.7,3,464.5,3"/>
	<path class="st2" d="M44.6,93.6c4.5,0,8.2-3.7,8.2-8.2V52.4h74.1c4.6,0,8.2-3.7,8.2-8.2c0-4.5-3.7-8.2-8.2-8.2H52.8
		c-9.1,0-16.5,7.4-16.5,16.5v32.9C36.3,89.9,40,93.6,44.6,93.6"/>
	<path class="st2" d="M250.4,68.9c-13.6,0-24.7,11.1-24.7,24.7c0,4.6,3.7,8.2,8.2,8.2c4.6,0,8.2-3.7,8.2-8.2c0-4.5,3.7-8.2,8.2-8.2
		c4.5,0,8.2-3.7,8.2-8.2C258.6,72.6,254.9,68.9,250.4,68.9"/>
	<path class="st2" d="M176.3,266.5c4.6,0,8.2-3.7,8.2-8.2v-16.5c0-4.6-3.7-8.2-8.2-8.2c-4.5,0-8.2,3.7-8.2,8.2v16.5
		C168.1,262.8,171.8,266.5,176.3,266.5"/>
	<path class="st2" d="M324.5,266.5c4.5,0,8.2-3.7,8.2-8.2v-16.5c0-4.6-3.7-8.2-8.2-8.2c-4.6,0-8.2,3.7-8.2,8.2v16.5
		C316.3,262.8,320,266.5,324.5,266.5"/>
	<path class="st2" d="M44.6,134.7c4.5,0,8.2-3.7,8.2-8.2v-8.2c0-4.6-3.7-8.2-8.2-8.2c-4.6,0-8.2,3.7-8.2,8.2v8.2
		C36.3,131,40,134.7,44.6,134.7"/>
</g>
</svg>
