<?xml version="1.0" encoding="UTF-8"?><svg xmlns="http://www.w3.org/2000/svg" viewBox="0 0 500 500"><defs><style>.e{fill:#ff671b;}</style></defs><g id="a"/><g id="b"><g id="c"><g id="d"><path class="e" d="M244.39,500c-5.87,0-11.75-.73-17.49-2.21l-168.81-45.9C23.89,442.59,0,411.31,0,375.84c0-21.14,8.25-40.99,23.22-55.89,14.87-14.79,34.56-22.92,55.5-22.92h.48l30.2,.14c4.18,0,101.75,.55,144.15,46.92h82.39c17.23,0,31.25,14.03,31.25,31.28,0,.84-.03,1.66-.1,2.49l88.45-41.27c15.62-7.3,34.25-.52,41.54,15.11,7.25,15.67,.47,34.31-15.11,41.58l-207.75,100.09c-9.41,4.39-19.62,6.62-29.85,6.62ZM78.74,312.67c-16.8,0-32.58,6.51-44.5,18.37-12.01,11.94-18.62,27.85-18.62,44.8,0,28.43,19.15,53.5,46.56,60.96l168.71,45.87c12.14,3.13,25.19,1.92,36.65-3.42l207.75-100.09c7.87-3.67,11.25-13.01,7.63-20.86-3.64-7.78-12.96-11.2-20.77-7.53l-109.87,51.27c-2.03,1.25-4.22,2.28-6.52,3.04l-1.79,.83c-1.57,.73-3.24,.89-4.82,.59-1.06,.11-2.13,.16-3.21,.16H203.13c-4.31,0-7.81-3.5-7.81-7.82s3.5-7.82,7.81-7.82h132.82c1.45,0,2.86-.2,4.19-.57l4.61-2.15c4.12-2.83,6.82-7.56,6.82-12.92,0-8.62-7.01-15.64-15.63-15.64h-85.94c-2.32,0-4.52-1.03-6-2.81-36.25-43.54-133.66-44.11-134.64-44.11l-30.24-.14h-.39Z"/><g><path class="e" d="M179.69,23.46c-4.31,0-7.81-3.5-7.81-7.82V7.82c0-4.32,3.5-7.82,7.81-7.82s7.81,3.5,7.81,7.82v7.82c0,4.32-3.5,7.82-7.81,7.82Z"/><path class="e" d="M210.94,46.92h-7.81c-4.31,0-7.81-3.5-7.81-7.82s3.5-7.82,7.81-7.82h7.81c4.31,0,7.81,3.5,7.81,7.82s-3.5,7.82-7.81,7.82Z"/><path class="e" d="M156.25,46.92h-7.81c-4.31,0-7.81-3.5-7.81-7.82s3.5-7.82,7.81-7.82h7.81c4.31,0,7.81,3.5,7.81,7.82s-3.5,7.82-7.81,7.82Z"/><path class="e" d="M179.69,78.2c-4.31,0-7.81-3.5-7.81-7.82v-7.82c0-4.32,3.5-7.82,7.81-7.82s7.81,3.5,7.81,7.82v7.82c0,4.32-3.5,7.82-7.81,7.82Z"/></g><g><path class="e" d="M406.26,132.7c-2,0-4-.76-5.52-2.29-3.05-3.05-3.05-8,0-11.06l7.81-7.82c3.05-3.05,8-3.05,11.05,0,3.05,3.05,3.05,8,0,11.06l-7.81,7.82c-1.53,1.53-3.52,2.29-5.52,2.29Z"/><path class="e" d="M414.07,171.8c-2,0-4-.76-5.52-2.29l-7.81-7.82c-3.05-3.05-3.05-8,0-11.06,3.05-3.05,8-3.05,11.05,0l7.81,7.82c3.05,3.05,3.05,8,0,11.06-1.53,1.53-3.52,2.29-5.52,2.29Z"/><path class="e" d="M375.01,132.7c-2,0-4-.76-5.52-2.29l-7.81-7.82c-3.05-3.05-3.05-8,0-11.06,3.05-3.05,8-3.05,11.05,0l7.81,7.82c3.05,3.05,3.05,8,0,11.06-1.53,1.53-3.52,2.29-5.52,2.29Z"/></g><g><path class="e" d="M54.69,125.12c-2,0-4-.76-5.52-2.29l-15.63-15.64c-3.05-3.05-3.05-8,0-11.06s8-3.05,11.05,0l15.63,15.64c3.05,3.05,3.05,8,0,11.06-1.53,1.53-3.52,2.29-5.52,2.29Z"/><path class="e" d="M85.94,125.12c-2,0-4-.76-5.52-2.29-3.05-3.05-3.05-8,0-11.06l15.63-15.64c3.05-3.05,8-3.05,11.05,0,3.05,3.05,3.05,8,0,11.06l-15.63,15.64c-1.53,1.53-3.52,2.29-5.52,2.29Z"/><path class="e" d="M101.57,172.05c-2,0-4-.76-5.52-2.29l-15.63-15.64c-3.05-3.05-3.05-8,0-11.06,3.05-3.05,8-3.05,11.05,0l15.63,15.64c3.05,3.05,3.05,8,0,11.06-1.53,1.53-3.52,2.29-5.52,2.29Z"/><path class="e" d="M39.06,172.05c-2,0-4-.76-5.52-2.29-3.05-3.05-3.05-8,0-11.06l15.63-15.64c3.05-3.05,8-3.05,11.05,0,3.05,3.05,3.05,8,0,11.06l-15.63,15.64c-1.53,1.53-3.52,2.29-5.52,2.29Z"/></g><path class="e" d="M187.21,281.28c-1.64,0-3.28-.52-4.65-1.54-2.38-1.76-3.56-4.73-3.05-7.64l11.25-63.75-47.7-45.2c-2.18-2.07-2.98-5.2-2.07-8.06,.91-2.86,3.38-4.94,6.36-5.36l66.11-9.32,29.55-58.18c1.34-2.62,4.02-4.28,6.96-4.28h0c2.94,0,5.63,1.65,6.96,4.27l29.61,58.19,66.11,9.32c2.97,.42,5.44,2.5,6.36,5.37,.91,2.86,.11,5.99-2.07,8.06l-47.73,45.2,11.28,63.74c.51,2.92-.66,5.89-3.04,7.65-2.38,1.76-5.55,2.03-8.2,.68l-59.28-30.23-59.22,30.23c-1.12,.57-2.34,.86-3.55,.86Zm62.77-47.69c1.22,0,2.43,.28,3.55,.86l48.85,24.91-9.28-52.43c-.46-2.59,.42-5.24,2.32-7.05l39-36.93-54.07-7.62c-2.53-.36-4.72-1.92-5.87-4.19l-24.49-48.12-24.44,48.11c-1.16,2.28-3.35,3.84-5.88,4.2l-54.08,7.62,38.98,36.93c1.91,1.81,2.78,4.45,2.32,7.04l-9.26,52.44,48.8-24.91c1.11-.57,2.33-.86,3.55-.86Zm-31.4-86.01h0Z"/></g></g></g></svg>