<?xml version="1.0" encoding="UTF-8"?><svg xmlns="http://www.w3.org/2000/svg" viewBox="0 0 356 500"><defs><style>.d{fill:#ff671b;}</style></defs><g id="a"/><g id="b"><g id="c"><g><path class="d" d="M84.42,500H8.36c-4.18,0-7.57-3.39-7.57-7.58v-148.07c0-4.19,3.39-7.58,7.57-7.58H84.42c4.18,0,7.57,3.39,7.57,7.58v31.25c0,4.19-3.39,7.58-7.57,7.58s-7.57-3.39-7.57-7.58v-23.67H15.93v132.91H84.42c4.18,0,7.57,3.39,7.57,7.58s-3.39,7.58-7.57,7.58Z"/><path class="d" d="M216.42,500h-76.07c-4.18,0-7.57-3.39-7.57-7.58v-184.22c0-4.19,3.39-7.58,7.57-7.58h76.07c4.18,0,7.57,3.39,7.57,7.58v31.34c0,4.19-3.39,7.58-7.57,7.58s-7.57-3.39-7.57-7.58v-23.76h-60.92v169.07h68.49c4.18,0,7.57,3.39,7.57,7.58s-3.39,7.58-7.57,7.58Z"/><path class="d" d="M348.43,500h-76.07c-4.18,0-7.57-3.39-7.57-7.58V194.72c0-4.19,3.39-7.58,7.57-7.58h76.07c4.18,0,7.57,3.39,7.57,7.58v28.87c0,4.19-3.39,7.58-7.57,7.58s-7.57-3.39-7.57-7.58v-21.29h-60.92V484.85h68.49c4.18,0,7.57,3.39,7.57,7.58s-3.39,7.58-7.57,7.58Z"/><path class="d" d="M84.42,465.72c-4.18,0-7.57-3.39-7.57-7.58v-4.06c0-4.19,3.39-7.58,7.57-7.58s7.57,3.39,7.57,7.58v4.06c0,4.19-3.39,7.58-7.57,7.58Zm0-38.34c-4.18,0-7.57-3.39-7.57-7.58v-4.06c0-4.19,3.39-7.58,7.57-7.58s7.57,3.39,7.57,7.58v4.06c0,4.19-3.39,7.58-7.57,7.58Z"/><path class="d" d="M216.42,465.72c-4.18,0-7.57-3.39-7.57-7.58v-4.06c0-4.19,3.39-7.58,7.57-7.58s7.57,3.39,7.57,7.58v4.06c0,4.19-3.39,7.58-7.57,7.58Zm0-38.34c-4.18,0-7.57-3.39-7.57-7.58v-4.06c0-4.19,3.39-7.58,7.57-7.58s7.57,3.39,7.57,7.58v4.06c0,4.19-3.39,7.58-7.57,7.58Zm0-38.34c-4.18,0-7.57-3.39-7.57-7.58v-4.06c0-4.19,3.39-7.58,7.57-7.58s7.57,3.39,7.57,7.58v4.06c0,4.19-3.39,7.58-7.57,7.58Z"/><path class="d" d="M348.43,465.72c-4.18,0-7.57-3.39-7.57-7.58v-4.06c0-4.19,3.39-7.58,7.57-7.58s7.57,3.39,7.57,7.58v4.06c0,4.19-3.39,7.58-7.57,7.58Zm0-38.34c-4.18,0-7.57-3.39-7.57-7.58v-4.06c0-4.19,3.39-7.58,7.57-7.58s7.57,3.39,7.57,7.58v4.06c0,4.19-3.39,7.58-7.57,7.58Zm0-38.34c-4.18,0-7.57-3.39-7.57-7.58v-4.06c0-4.19,3.39-7.58,7.57-7.58s7.57,3.39,7.57,7.58v4.06c0,4.19-3.39,7.58-7.57,7.58Zm0-38.34c-4.18,0-7.57-3.39-7.57-7.58v-4.06c0-4.19,3.39-7.58,7.57-7.58s7.57,3.39,7.57,7.58v4.06c0,4.19-3.39,7.58-7.57,7.58Zm0-38.34c-4.18,0-7.57-3.39-7.57-7.58v-4.06c0-4.19,3.39-7.58,7.57-7.58s7.57,3.39,7.57,7.58v4.06c0,4.19-3.39,7.58-7.57,7.58Zm0-38.34c-4.18,0-7.57-3.39-7.57-7.58v-4.06c0-4.19,3.39-7.58,7.57-7.58s7.57,3.39,7.57,7.58v4.06c0,4.19-3.39,7.58-7.57,7.58Z"/><path class="d" d="M199.94,284.65c-4.18,0-7.57-3.39-7.57-7.58V120.85h-52.01c-3.05,0-5.81-1.83-6.98-4.65-1.18-2.81-.55-6.06,1.59-8.24L238.99,2.17c2.85-2.89,7.94-2.89,10.8,0l104.04,105.78c2.14,2.18,2.77,5.43,1.59,8.24-1.18,2.82-3.93,4.65-6.98,4.65h-52.02v41.32c0,4.19-3.39,7.58-7.57,7.58s-7.57-3.39-7.57-7.58v-48.9c0-4.19,3.39-7.58,7.57-7.58h41.51L244.39,18.29l-85.96,87.4h41.51c4.18,0,7.57,3.39,7.57,7.58v163.81c0,4.19-3.39,7.58-7.57,7.58Z"/><path class="d" d="M123.25,276.5c-2.53,0-5.07-.61-7.42-1.84l-33.23-17.48c-.22-.12-.49-.12-.71,0l-33.23,17.48c-5.4,2.84-11.82,2.38-16.76-1.21-4.94-3.59-7.36-9.56-6.33-15.57l6.35-37.02c.04-.25-.04-.5-.22-.68l-26.88-26.22c-4.37-4.26-5.91-10.51-4.03-16.32,1.89-5.81,6.81-9.96,12.85-10.84l37.15-5.4c.25-.04,.46-.2,.58-.43l16.61-33.68c2.7-5.47,8.17-8.88,14.27-8.88h0c6.1,0,11.57,3.4,14.27,8.88h0l16.61,33.68c.11,.23,.33,.38,.58,.42l37.15,5.4c6.04,.88,10.96,5.03,12.85,10.84,1.88,5.81,.34,12.06-4.03,16.32l-26.88,26.22c-.18,.18-.26,.44-.22,.69l6.34,37.01c1.03,6.02-1.39,11.99-6.33,15.57-2.79,2.03-6.05,3.06-9.34,3.06Zm-41.01-142.94c-.48,0-.61,.28-.69,.43l-16.61,33.68c-2.32,4.7-6.8,7.96-11.98,8.71l-37.16,5.4c-.17,.02-.47,.07-.62,.52s.07,.67,.19,.78l26.88,26.22c3.75,3.66,5.46,8.92,4.58,14.09l-6.35,37.03c-.03,.16-.08,.47,.31,.75,.38,.28,.66,.14,.81,.06l33.23-17.48c4.63-2.44,10.17-2.44,14.81,0l33.23,17.48c.15,.08,.43,.22,.81-.06,.39-.28,.33-.59,.31-.75l-6.35-37.02c-.88-5.17,.83-10.44,4.57-14.09l26.88-26.22c.12-.12,.34-.33,.2-.79-.14-.45-.45-.5-.62-.52l-37.15-5.4c-5.19-.75-9.66-4.01-11.98-8.71l-16.61-33.69c-.08-.15-.21-.43-.69-.43Z"/></g></g></g></svg>