<?xml version="1.0" encoding="UTF-8"?><svg xmlns="http://www.w3.org/2000/svg" viewBox="0 0 500 376.91"><defs><style>.d,.e{fill:#ff671b;}.e{fill-rule:evenodd;}</style></defs><g id="a"/><g id="b"><g id="c"><g><g><path class="d" d="M417.59,158.63l-.51-2.51-8.43,8.43,.46,.24c1.97,1.11,4.38,.97,6.21-.35,1.84-1.35,2.7-3.57,2.27-5.81Zm-17.04-77.22h-13.1c1.76,1.84,3.51,3.62,5.24,5.4h13.07c-1.76-1.84-3.51-3.62-5.21-5.4Zm-57.88,78.57l-1.08-13.02-5.89-5.89,1.19,14.48,5.97,5.97c-.08-.51-.13-1.03-.19-1.54Zm41.49-95.37C338.32,17.91,319.25,.7,313.36,.03c-.19-.03-.38-.03-.54-.03H134.86c-.19,0-.38,0-.54,.03-7.45,.86-36,28.14-113.03,108.12-8.56,8.86-15.07,15.61-18.15,18.69-2,2.03-3.13,4.7-3.13,7.56s1.13,5.56,3.13,7.56l53.05,53.05c4.02,4.05,11.1,4.05,15.13,0l44.75-44.73v157.79c0,5.19,2.03,9.86,5.75,13.15,3.59,3.21,8.29,4.73,13.29,4.21h170.59v-4.51c0-1.97,.95-3.75,2.38-4.89H134.86c-.19,0-.38,0-.54,.03-2.38,.27-4.62-.38-6.27-1.86-1.67-1.49-2.59-3.67-2.59-6.13V138.94c0-1.92-1.16-3.62-2.92-4.35-1.76-.73-3.75-.32-5.1,1.03l-52.78,52.75c-.65,.65-1.19,.65-1.84,0L9.78,135.32c-.32-.32-.38-.7-.38-.92,0-.19,.05-.59,.38-.92,3.11-3.11,9.67-9.89,18.26-18.83C54.8,86.89,125.78,13.23,135.32,9.4h176.8c6.24,2.81,32.63,28.66,58.83,55.21,1.78,1.81,3.54,3.59,5.29,5.4h13.15c-1.78-1.84-3.54-3.65-5.24-5.4Zm-61.93,239.71v3.75c0,.41-.03,.81-.08,1.22-.14,1.05-.46,2.05-.95,2.94-.32,.57-.7,1.05-1.13,1.51-.14,.16-.3,.32-.46,.46-.19,.16-.38,.32-.59,.49-1.24,.89-2.76,1.38-4.35,1.43v9.4c1.86-.03,3.7-.32,5.4-.92v-9.91h8.78v3.03c.65-.95,1.16-1.97,1.54-3.03,.68-1.67,1.08-3.51,1.16-5.4h-3.19c-3.03,0-5.56-2.16-6.13-4.97Zm0-135.45v120.22c.57-2.84,3.11-5,6.13-5h3.27v-108.47c-3.43-1.76-6.54-4.05-9.4-6.75Z"/><polygon class="e" points="223.83 72.01 163.16 4.7 284.51 4.7 223.83 72.01"/></g><g><polygon class="e" points="26.28 109.72 88.12 171.56 81.48 178.21 19.76 116.49 26.28 109.72"/><polygon class="e" points="40.12 95.37 102.22 157.47 95.57 164.11 33.59 102.13 40.12 95.37"/></g><path class="e" d="M280.37,121.91v74.24h7.09v26.41h-46.02v-26.41h7.85v-45.87h-8.9v-16.76l11.62-11.62h28.37Zm-69.31,23.54v53.27l-6.03,6.19h-17.81l-6.03-6.19v-53.27l6.03-5.73h18.26l5.58,5.73h0Zm-9.05,2.72h-12.07v47.98h12.07v-47.98h0Zm30.18-8.45l-17.2-17.81h-37.27l-17.5,17.81v65.19l17.5,17.65h36.52l17.96-17.65v-65.19h0Zm-8.91,3.47l-12.07-12.68h-29.43l-12.82,12.68v57.8l12.82,12.82h28.37l13.12-12.82v-57.8h0Zm47.28-12.68h-14.18l-7.09,6.94v3.92h9.05v63.53h-7.85v8.9h28.07v-8.9h-8v-74.39Z"/><path class="e" d="M120.75,177.51h32.79v9.39h-32.79v-9.39h0Zm191.85-19.94v9.4h-25.58v-9.4m39.88,19.94v9.39h-39.88v-9.39h39.88Zm-206.16-10.54v-9.4h32.79v9.4h-32.79Z"/><g><path class="d" d="M444.98,185.6c36.96-2.14,51.87-55,54.51-65.8,1.28-5.21,.11-10.62-3.2-14.84-3.3-4.2-8.26-6.62-13.61-6.62h-24.35l.94-11.53h1.25c6.13,0,11.13-4.97,11.13-11.1s-5-11.1-11.13-11.1h-131.59c-6.13,0-11.13,4.97-11.13,11.1s5,11.1,11.13,11.1h1.25l.94,11.53h-24.35c-5.35,0-10.31,2.41-13.61,6.61-3.31,4.24-4.47,9.66-3.18,14.87,1.61,6.63,10.69,40.55,31.59,56.93,3.12,2.44,6.27,4.33,9.61,5.8,4.22,1.85,8.72,2.88,13.37,3.15,6.95,11.54,17.74,20.29,30.49,24.78v27.7c-9.59,4.72-16.31,12.97-17.73,22.69h-2.05c-6.69,0-12.13,5.44-12.13,12.13,0,2.07,.57,3.99,1.48,5.69h-16.29c-2.24,0-4.35,.65-6.13,1.76-3.32,2.05-5.54,5.73-5.54,9.91v12.69c0,1.89,.55,3.63,1.36,5.21h-6.09c-4.9,0-9.4,2.89-11.46,7.33-.79,1.61-1.21,3.46-1.21,5.33v12.72c0,6.99,5.68,12.67,12.67,12.67h4.87c-.73,1.6-1.16,3.36-1.16,5.22v12.7c0,6.99,5.68,12.68,12.67,12.68h133.68c6.99,0,12.67-5.69,12.67-12.68v-12.7c0-6.99-5.68-12.68-12.67-12.68h-4.98c.75-1.63,1.26-3.37,1.26-5.21v-12.72c0-2.19-.64-4.32-1.74-6.24h5.47c6.43,0,11.64-5.21,11.64-11.64v-12.69c0-6.43-5.21-11.67-11.64-11.67h-2.72c-.67-.62-1.54-1.01-2.52-1.01s-1.85,.4-2.52,1.01h-9.15c-.06-.06-.14-.08-.2-.14,.87-1.67,1.41-3.54,1.41-5.55,0-6.69-5.44-12.13-12.13-12.13h-2.05c-1.41-9.71-8.14-17.97-17.73-22.69v-27.7c12.79-4.51,23.61-13.29,30.56-24.88Zm-20.31,75.27h-59.87c2.23-11.03,14.07-19.49,28.41-19.49h3.05c14.34,0,26.17,8.47,28.4,19.49Zm9.52,16.81h-78.9c-2.58,0-4.68-2.1-4.68-4.68s2.1-4.69,4.68-4.69h78.9c2.58,0,4.68,2.1,4.68,4.69s-2.1,4.68-4.68,4.68Zm-37.93-43.75h-3.05c-3.75,0-7.3,.62-10.7,1.51v-22.86c3.97,.84,8.07,1.32,12.23,1.32,2.84,0,5.66-.2,8.42-.59,.03,0,.06,0,.08,0h.02s.07-.02,.1-.02c1.22-.18,2.41-.43,3.6-.68v22.84c-3.4-.89-6.95-1.51-10.7-1.51Zm-45.93-53l-.19-.34c-.12-.18-.23-.39-.45-.79-.06-.1-.11-.2-.16-.3-2.87-5.37-4.73-11.11-5.54-17.14-.04-.31-.08-.63-.12-.95v-.04s0-.02,0-.02c-.08-.48-.13-.96-.18-1.44l-4.78-57.87c0-.22-.03-.44-.06-.57l-1.1-13.61h113.97l-1.1,13.57c-.04,.2-.06,.43-.06,.58l-4.78,57.87c-.65,7.08-2.67,13.78-6.01,19.9l-.2,.22v.18c-.05,.11-.13,.23-.2,.35-.03,.06-.07,.11-.1,.16h0c-6.43,11.33-16.8,19.66-29.22,23.49l-.18,.02c-.16,.03-.31,.08-.45,.14l-.35,.02-.1,.14c-9.26,2.62-19.33,2.62-28.57-.02l-.14-.14h-.25c-.1-.03-.16-.02-.21-.06l-.45-.1c-12.28-3.79-22.58-12.03-29.02-23.22Zm-14.07-20.36c.02,.23,.04,.47,.07,.7,.01,.09,.02,.18,.03,.27,.61,5.61,2.1,10.98,4.19,16.09-2.91-.59-5.76-1.5-8.47-2.92-3.22-1.65-6.22-3.8-9.17-6.59-16.71-15.64-24.33-44.47-25.69-50.09-.73-2.98-.08-6.06,1.81-8.46,1.88-2.39,4.71-3.76,7.76-3.76h24.95l4.52,54.76Zm146.42-54.77c3.04,0,5.87,1.37,7.75,3.76,1.89,2.41,2.55,5.5,1.82,8.48-2.31,9.42-14.7,54-43.38,59.7,2.24-5.45,3.78-11.2,4.34-17.21l4.52-54.74h24.96Zm-159.46-30.08c0-3.16,2.57-5.7,5.73-5.7h131.59c3.16,0,5.73,2.54,5.73,5.7s-2.57,5.7-5.73,5.7h-2.26c-.7-.64-1.56-1.03-2.49-1.03h-122.08c-.91,0-1.78,.39-2.49,1.03h-2.27c-3.16,0-5.73-2.57-5.73-5.7Zm22.52,255.31c2.05,0,3.72-1.68,3.72-3.73v-11.58h96.17c2.88,0,5.21,2.34,5.21,5.21v12.72c0,2.87-2.34,5.21-5.21,5.21h-133.67c-2.89,0-5.24-2.33-5.24-5.21v-12.72c0-1.57,.74-3.1,1.98-4.08,.96-.75,2.09-1.14,3.26-1.14h1.67v11.59c0,2.05,1.67,3.72,3.73,3.72s3.73-1.67,3.73-3.72v-11.59h6.72v11.59c0,2.05,1.67,3.72,3.73,3.72s3.73-1.67,3.73-3.72v-11.59h6.74v11.58c0,2.05,1.67,3.73,3.73,3.73Zm121.5,33.22c0,2.88-2.34,5.22-5.22,5.22h-133.68c-2.88,0-5.22-2.34-5.22-5.22v-12.7c0-2.88,2.34-5.22,5.22-5.22h93.36v11.57c0,2.05,1.67,3.73,3.73,3.73s3.73-1.68,3.73-3.73v-11.57h6.73v11.57c0,2.05,1.67,3.73,3.73,3.73s3.73-1.68,3.73-3.73v-11.57h18.69c2.88,0,5.22,2.34,5.22,5.22v12.7Zm1.02-73.89v12.69c0,3.43-2.81,6.24-6.24,6.24h-11.64c-1.49-.61-3.08-1.03-4.75-1.03h-120.55c-1.43-.89-2.51-2.27-2.85-3.94-.08-.41-.13-.84-.13-1.27v-12.69c0-.43,.05-.86,.13-1.27,.57-2.84,3.11-5,6.13-5h22.07c1.49,.66,3.14,1.04,4.87,1.04h55.21v11.57c0,2.05,1.67,3.73,3.73,3.73s3.73-1.68,3.73-3.73v-11.57h6.73v11.57c0,2.05,1.67,3.73,3.73,3.73s3.73-1.68,3.73-3.73v-11.57h2.05c1.66,0,3.24-.34,4.68-.94v12.51c0,2.05,1.67,3.73,3.73,3.73s3.73-1.68,3.73-3.73v-12.61h6.73v12.61c0,2.05,1.67,3.73,3.73,3.73s3.73-1.68,3.73-3.73v-12.61h1.51c3.43,0,6.24,2.81,6.24,6.27Z"/><path class="d" d="M375,142.31c.11,.11,.14,.22,.14,.35l-3.24,15.96c-.43,2.24,.43,4.46,2.27,5.81,1.03,.73,2.19,1.11,3.38,1.11,.97,0,1.94-.24,2.84-.76l14.18-7.99c.11-.05,.27-.05,.38,0l13.72,7.75,.46,.24c1.97,1.11,4.38,.97,6.21-.35,1.84-1.35,2.7-3.56,2.27-5.81l-.51-2.51-2.73-13.45c0-.13,.03-.24,.14-.35l11.97-11.02c1.7-1.54,2.3-3.84,1.59-6.02-.7-2.16-2.57-3.67-4.83-3.94l-16.15-1.86c-.14,0-.24-.08-.3-.22l-6.78-14.8c-.95-2.08-2.94-3.35-5.24-3.35s-4.29,1.27-5.24,3.35l-6.78,14.8c-.05,.14-.16,.22-.3,.22l-16.15,1.86c-2.27,.27-4.13,1.78-4.83,3.94-.7,2.19-.11,4.48,1.59,6.02l11.97,11.02Zm-8.1-15.61l16.15-1.86c2-.24,3.75-1.51,4.59-3.35l6.78-14.8c.03-.05,.08-.22,.32-.22s.3,.16,.32,.22l6.78,14.8c.84,1.84,2.59,3.11,4.59,3.35l16.15,1.86c.08,0,.24,.03,.32,.24,.05,.22-.05,.35-.11,.38l-11.99,11.02c-1.46,1.35-2.13,3.43-1.73,5.4l3.21,15.94c0,.08,.05,.24-.16,.38-.16,.13-.32,.05-.38,.03l-14.18-7.99c-.89-.49-1.86-.73-2.84-.73s-1.94,.24-2.84,.73l-14.18,7.99c-.05,.03-.19,.11-.38-.03-.19-.14-.16-.3-.16-.38l3.21-15.96c.41-1.94-.27-4.02-1.73-5.37l-11.99-11.02c-.05-.03-.16-.16-.11-.38,.08-.22,.24-.24,.32-.24Z"/></g></g></g></g></svg>